<svg xmlns="http://www.w3.org/2000/svg" xmlns:xlink="http://www.w3.org/1999/xlink" width="6912" zoomAndPan="magnify" viewBox="0 0 5184 2592.000001" height="3456" preserveAspectRatio="xMidYMid meet" version="1.0"><defs><filter x="0%" y="0%" width="100%" height="100%" id="75ce4680fa"><feColorMatrix values="0 0 0 0 1 0 0 0 0 1 0 0 0 0 1 0 0 0 1 0" color-interpolation-filters="sRGB"/></filter><g/><clipPath id="323c8ce173"><path d="M 1922 668 L 2115 668 L 2115 870 L 1922 870 Z M 1922 668 " clip-rule="nonzero"/></clipPath><clipPath id="1dd2816de0"><path d="M 1944.328125 556.789062 L 2198.140625 615.496094 L 2117.914062 962.371094 L 1864.101562 903.667969 Z M 1944.328125 556.789062 " clip-rule="nonzero"/></clipPath><clipPath id="deff6710c6"><path d="M 1944.328125 556.789062 L 2198.140625 615.496094 L 2117.914062 962.371094 L 1864.101562 903.667969 Z M 1944.328125 556.789062 " clip-rule="nonzero"/></clipPath><clipPath id="b877ac9319"><path d="M 1902 632 L 2140 632 L 2140 930 L 1902 930 Z M 1902 632 " clip-rule="nonzero"/></clipPath><clipPath id="cafe470eec"><path d="M 1944.328125 556.789062 L 2198.140625 615.496094 L 2117.914062 962.371094 L 1864.101562 903.667969 Z M 1944.328125 556.789062 " clip-rule="nonzero"/></clipPath><clipPath id="51ca83c9a2"><path d="M 1944.328125 556.789062 L 2198.140625 615.496094 L 2117.914062 962.371094 L 1864.101562 903.667969 Z M 1944.328125 556.789062 " clip-rule="nonzero"/></clipPath><clipPath id="82bb2ca7ac"><path d="M 1933.972656 601.578125 L 2169.152344 655.972656 L 2099.214844 958.347656 L 1864.035156 903.953125 Z M 1933.972656 601.578125 " clip-rule="nonzero"/></clipPath><clipPath id="38bea7c07e"><path d="M 1933.972656 601.578125 L 2169.152344 655.972656 L 2100.300781 953.65625 L 1865.117188 899.261719 Z M 1933.972656 601.578125 " clip-rule="nonzero"/></clipPath><clipPath id="cfb798dbaf"><path d="M 1959 749 L 2066 749 L 2066 859 L 1959 859 Z M 1959 749 " clip-rule="nonzero"/></clipPath><clipPath id="cf69350c81"><path d="M 1944.328125 556.789062 L 2198.140625 615.496094 L 2117.914062 962.371094 L 1864.101562 903.667969 Z M 1944.328125 556.789062 " clip-rule="nonzero"/></clipPath><clipPath id="242cd500a0"><path d="M 1944.328125 556.789062 L 2198.140625 615.496094 L 2117.914062 962.371094 L 1864.101562 903.667969 Z M 1944.328125 556.789062 " clip-rule="nonzero"/></clipPath><clipPath id="eaf64e690d"><path d="M 2060 589 L 2079 589 L 2079 624 L 2060 624 Z M 2060 589 " clip-rule="nonzero"/></clipPath><clipPath id="3d813fa089"><path d="M 1944.328125 556.789062 L 2198.140625 615.496094 L 2117.914062 962.371094 L 1864.101562 903.667969 Z M 1944.328125 556.789062 " clip-rule="nonzero"/></clipPath><clipPath id="4a47efcd97"><path d="M 1944.328125 556.789062 L 2198.140625 615.496094 L 2117.914062 962.371094 L 1864.101562 903.667969 Z M 1944.328125 556.789062 " clip-rule="nonzero"/></clipPath><clipPath id="201bcfffda"><path d="M 2118 635 L 2149 635 L 2149 660 L 2118 660 Z M 2118 635 " clip-rule="nonzero"/></clipPath><clipPath id="6be12d0fb4"><path d="M 1944.328125 556.789062 L 2198.140625 615.496094 L 2117.914062 962.371094 L 1864.101562 903.667969 Z M 1944.328125 556.789062 " clip-rule="nonzero"/></clipPath><clipPath id="0e8e90d520"><path d="M 1944.328125 556.789062 L 2198.140625 615.496094 L 2117.914062 962.371094 L 1864.101562 903.667969 Z M 1944.328125 556.789062 " clip-rule="nonzero"/></clipPath><clipPath id="f2f31084c5"><path d="M 2143 692 L 2178 692 L 2178 708 L 2143 708 Z M 2143 692 " clip-rule="nonzero"/></clipPath><clipPath id="25762d7f55"><path d="M 1944.328125 556.789062 L 2198.140625 615.496094 L 2117.914062 962.371094 L 1864.101562 903.667969 Z M 1944.328125 556.789062 " clip-rule="nonzero"/></clipPath><clipPath id="66bf1815bd"><path d="M 1944.328125 556.789062 L 2198.140625 615.496094 L 2117.914062 962.371094 L 1864.101562 903.667969 Z M 1944.328125 556.789062 " clip-rule="nonzero"/></clipPath><clipPath id="bd9a056425"><path d="M 2144.582031 685.683594 L 2186.582031 695.398438 L 2180.753906 720.597656 L 2138.753906 710.882812 Z M 2144.582031 685.683594 " clip-rule="nonzero"/></clipPath><clipPath id="888d2c25b2"><path d="M 2144.582031 685.683594 L 2178.609375 693.554688 L 2172.78125 718.753906 L 2138.753906 710.882812 Z M 2144.582031 685.683594 " clip-rule="nonzero"/></clipPath><clipPath id="2cba5bf50d"><path d="M 1998 584 L 2012 584 L 2012 620 L 1998 620 Z M 1998 584 " clip-rule="nonzero"/></clipPath><clipPath id="ec957360e3"><path d="M 1944.328125 556.789062 L 2198.140625 615.496094 L 2117.914062 962.371094 L 1864.101562 903.667969 Z M 1944.328125 556.789062 " clip-rule="nonzero"/></clipPath><clipPath id="89f1dabf5c"><path d="M 1944.328125 556.789062 L 2198.140625 615.496094 L 2117.914062 962.371094 L 1864.101562 903.667969 Z M 1944.328125 556.789062 " clip-rule="nonzero"/></clipPath><clipPath id="598c1dabcd"><path d="M 1936 608 L 1962 608 L 1962 639 L 1936 639 Z M 1936 608 " clip-rule="nonzero"/></clipPath><clipPath id="db45436e05"><path d="M 1944.328125 556.789062 L 2198.140625 615.496094 L 2117.914062 962.371094 L 1864.101562 903.667969 Z M 1944.328125 556.789062 " clip-rule="nonzero"/></clipPath><clipPath id="e74728830b"><path d="M 1944.328125 556.789062 L 2198.140625 615.496094 L 2117.914062 962.371094 L 1864.101562 903.667969 Z M 1944.328125 556.789062 " clip-rule="nonzero"/></clipPath><clipPath id="973390ffbd"><path d="M 3250 652 L 3460 652 L 3460 947 L 3250 947 Z M 3250 652 " clip-rule="nonzero"/></clipPath><clipPath id="4f635026fa"><path d="M 3208.515625 615.738281 L 3552.5625 663.515625 L 3504.785156 1007.5625 L 3160.738281 959.785156 Z M 3208.515625 615.738281 " clip-rule="nonzero"/></clipPath><clipPath id="81bc9fe5a5"><path d="M 3208.515625 615.738281 L 3552.5625 663.515625 L 3504.785156 1007.5625 L 3160.738281 959.785156 Z M 3208.515625 615.738281 " clip-rule="nonzero"/></clipPath><clipPath id="7e922196cb"><path d="M 3208.515625 615.738281 L 3553.300781 663.617188 L 3505.421875 1008.40625 L 3160.632812 960.523438 Z M 3208.515625 615.738281 " clip-rule="nonzero"/></clipPath><clipPath id="e3bd9d28d4"><path d="M 3208.515625 615.738281 L 3553.300781 663.617188 L 3505.421875 1008.40625 L 3160.632812 960.523438 Z M 3208.515625 615.738281 " clip-rule="nonzero"/></clipPath><clipPath id="2b90d643ca"><path d="M 3371 667 L 3446 667 L 3446 764 L 3371 764 Z M 3371 667 " clip-rule="nonzero"/></clipPath><clipPath id="0c00b19592"><path d="M 3208.515625 615.738281 L 3552.5625 663.515625 L 3504.785156 1007.5625 L 3160.738281 959.785156 Z M 3208.515625 615.738281 " clip-rule="nonzero"/></clipPath><clipPath id="4514a6d768"><path d="M 3208.515625 615.738281 L 3552.5625 663.515625 L 3504.785156 1007.5625 L 3160.738281 959.785156 Z M 3208.515625 615.738281 " clip-rule="nonzero"/></clipPath><clipPath id="e361e444c6"><path d="M 3208.515625 615.738281 L 3553.300781 663.617188 L 3505.421875 1008.40625 L 3160.632812 960.523438 Z M 3208.515625 615.738281 " clip-rule="nonzero"/></clipPath><clipPath id="6116faf1fc"><path d="M 3208.515625 615.738281 L 3553.300781 663.617188 L 3505.421875 1008.40625 L 3160.632812 960.523438 Z M 3208.515625 615.738281 " clip-rule="nonzero"/></clipPath><clipPath id="43fe99ef3f"><path d="M 3366 662 L 3451 662 L 3451 769 L 3366 769 Z M 3366 662 " clip-rule="nonzero"/></clipPath><clipPath id="71bf023227"><path d="M 3208.515625 615.738281 L 3552.5625 663.515625 L 3504.785156 1007.5625 L 3160.738281 959.785156 Z M 3208.515625 615.738281 " clip-rule="nonzero"/></clipPath><clipPath id="c612380696"><path d="M 3208.515625 615.738281 L 3552.5625 663.515625 L 3504.785156 1007.5625 L 3160.738281 959.785156 Z M 3208.515625 615.738281 " clip-rule="nonzero"/></clipPath><clipPath id="f1ea8b70d3"><path d="M 3208.515625 615.738281 L 3553.300781 663.617188 L 3505.421875 1008.40625 L 3160.632812 960.523438 Z M 3208.515625 615.738281 " clip-rule="nonzero"/></clipPath><clipPath id="8e2078ead4"><path d="M 3208.515625 615.738281 L 3553.300781 663.617188 L 3505.421875 1008.40625 L 3160.632812 960.523438 Z M 3208.515625 615.738281 " clip-rule="nonzero"/></clipPath><clipPath id="1be1e74375"><path d="M 3264 762 L 3443 762 L 3443 933 L 3264 933 Z M 3264 762 " clip-rule="nonzero"/></clipPath><clipPath id="e9d8a06cb3"><path d="M 3208.515625 615.738281 L 3552.5625 663.515625 L 3504.785156 1007.5625 L 3160.738281 959.785156 Z M 3208.515625 615.738281 " clip-rule="nonzero"/></clipPath><clipPath id="bbfa7f0bde"><path d="M 3208.515625 615.738281 L 3552.5625 663.515625 L 3504.785156 1007.5625 L 3160.738281 959.785156 Z M 3208.515625 615.738281 " clip-rule="nonzero"/></clipPath><clipPath id="c758b3fd5e"><path d="M 3208.515625 615.738281 L 3553.300781 663.617188 L 3505.421875 1008.40625 L 3160.632812 960.523438 Z M 3208.515625 615.738281 " clip-rule="nonzero"/></clipPath><clipPath id="3c03487c30"><path d="M 3208.515625 615.738281 L 3553.300781 663.617188 L 3505.421875 1008.40625 L 3160.632812 960.523438 Z M 3208.515625 615.738281 " clip-rule="nonzero"/></clipPath><clipPath id="5501770620"><path d="M 3259 757 L 3448 757 L 3448 938 L 3259 938 Z M 3259 757 " clip-rule="nonzero"/></clipPath><clipPath id="b40b9e3f99"><path d="M 3208.515625 615.738281 L 3552.5625 663.515625 L 3504.785156 1007.5625 L 3160.738281 959.785156 Z M 3208.515625 615.738281 " clip-rule="nonzero"/></clipPath><clipPath id="9257b654c9"><path d="M 3208.515625 615.738281 L 3552.5625 663.515625 L 3504.785156 1007.5625 L 3160.738281 959.785156 Z M 3208.515625 615.738281 " clip-rule="nonzero"/></clipPath><clipPath id="f0075293bd"><path d="M 3208.515625 615.738281 L 3553.300781 663.617188 L 3505.421875 1008.40625 L 3160.632812 960.523438 Z M 3208.515625 615.738281 " clip-rule="nonzero"/></clipPath><clipPath id="16d5c4f103"><path d="M 3208.515625 615.738281 L 3553.300781 663.617188 L 3505.421875 1008.40625 L 3160.632812 960.523438 Z M 3208.515625 615.738281 " clip-rule="nonzero"/></clipPath><clipPath id="f0d18dccd6"><path d="M 3407 771 L 3431 771 L 3431 815 L 3407 815 Z M 3407 771 " clip-rule="nonzero"/></clipPath><clipPath id="dd22398bbe"><path d="M 3208.515625 615.738281 L 3552.5625 663.515625 L 3504.785156 1007.5625 L 3160.738281 959.785156 Z M 3208.515625 615.738281 " clip-rule="nonzero"/></clipPath><clipPath id="5a4b577588"><path d="M 3208.515625 615.738281 L 3552.5625 663.515625 L 3504.785156 1007.5625 L 3160.738281 959.785156 Z M 3208.515625 615.738281 " clip-rule="nonzero"/></clipPath><clipPath id="84c1870ef7"><path d="M 3208.515625 615.738281 L 3553.300781 663.617188 L 3505.421875 1008.40625 L 3160.632812 960.523438 Z M 3208.515625 615.738281 " clip-rule="nonzero"/></clipPath><clipPath id="83c5dd2e66"><path d="M 3208.515625 615.738281 L 3553.300781 663.617188 L 3505.421875 1008.40625 L 3160.632812 960.523438 Z M 3208.515625 615.738281 " clip-rule="nonzero"/></clipPath><mask id="e7caf028af"><g filter="url(#75ce4680fa)"><rect x="-518.4" width="6220.8" fill="#000000" y="-259.2" height="3110.400001" fill-opacity="0.5"/></g></mask><clipPath id="4dba70a573"><path d="M 1 3 L 23 3 L 23 41 L 1 41 Z M 1 3 " clip-rule="nonzero"/></clipPath><clipPath id="0c94c4345f"><path d="M -198.484375 -155.261719 L 145.5625 -107.484375 L 97.785156 236.5625 L -246.261719 188.785156 Z M -198.484375 -155.261719 " clip-rule="nonzero"/></clipPath><clipPath id="399be27317"><path d="M -198.484375 -155.261719 L 145.5625 -107.484375 L 97.785156 236.5625 L -246.261719 188.785156 Z M -198.484375 -155.261719 " clip-rule="nonzero"/></clipPath><clipPath id="b2c01ecb5e"><path d="M -198.484375 -155.261719 L 146.300781 -107.382812 L 98.421875 237.40625 L -246.367188 189.523438 Z M -198.484375 -155.261719 " clip-rule="nonzero"/></clipPath><clipPath id="34ed1f8ad8"><path d="M -198.484375 -155.261719 L 146.300781 -107.382812 L 98.421875 237.40625 L -246.367188 189.523438 Z M -198.484375 -155.261719 " clip-rule="nonzero"/></clipPath><clipPath id="fbeb7eee0f"><rect x="0" width="24" y="0" height="44"/></clipPath><clipPath id="8631c2abbc"><path d="M 3373 791 L 3407 791 L 3407 846 L 3373 846 Z M 3373 791 " clip-rule="nonzero"/></clipPath><clipPath id="fac3ef22ac"><path d="M 3208.515625 615.738281 L 3552.5625 663.515625 L 3504.785156 1007.5625 L 3160.738281 959.785156 Z M 3208.515625 615.738281 " clip-rule="nonzero"/></clipPath><clipPath id="26c2246801"><path d="M 3208.515625 615.738281 L 3552.5625 663.515625 L 3504.785156 1007.5625 L 3160.738281 959.785156 Z M 3208.515625 615.738281 " clip-rule="nonzero"/></clipPath><clipPath id="012a71b26b"><path d="M 3208.515625 615.738281 L 3553.300781 663.617188 L 3505.421875 1008.40625 L 3160.632812 960.523438 Z M 3208.515625 615.738281 " clip-rule="nonzero"/></clipPath><clipPath id="8a8e36a1bf"><path d="M 3208.515625 615.738281 L 3553.300781 663.617188 L 3505.421875 1008.40625 L 3160.632812 960.523438 Z M 3208.515625 615.738281 " clip-rule="nonzero"/></clipPath><mask id="f2f787184b"><g filter="url(#75ce4680fa)"><rect x="-518.4" width="6220.8" fill="#000000" y="-259.2" height="3110.400001" fill-opacity="0.5"/></g></mask><clipPath id="bdd6d54ee9"><path d="M 0.136719 3 L 33 3 L 33 51 L 0.136719 51 Z M 0.136719 3 " clip-rule="nonzero"/></clipPath><clipPath id="392694c541"><path d="M -164.484375 -175.261719 L 179.5625 -127.484375 L 131.785156 216.5625 L -212.261719 168.785156 Z M -164.484375 -175.261719 " clip-rule="nonzero"/></clipPath><clipPath id="c155e23ba1"><path d="M -164.484375 -175.261719 L 179.5625 -127.484375 L 131.785156 216.5625 L -212.261719 168.785156 Z M -164.484375 -175.261719 " clip-rule="nonzero"/></clipPath><clipPath id="83d5fbe1a7"><path d="M -164.484375 -175.261719 L 180.300781 -127.382812 L 132.421875 217.40625 L -212.367188 169.523438 Z M -164.484375 -175.261719 " clip-rule="nonzero"/></clipPath><clipPath id="51ea974905"><path d="M -164.484375 -175.261719 L 180.300781 -127.382812 L 132.421875 217.40625 L -212.367188 169.523438 Z M -164.484375 -175.261719 " clip-rule="nonzero"/></clipPath><clipPath id="e7a539d1f9"><rect x="0" width="34" y="0" height="55"/></clipPath><clipPath id="06030062ee"><path d="M 3295 784 L 3354 784 L 3354 815 L 3295 815 Z M 3295 784 " clip-rule="nonzero"/></clipPath><clipPath id="e8e423c48c"><path d="M 3208.515625 615.738281 L 3552.5625 663.515625 L 3504.785156 1007.5625 L 3160.738281 959.785156 Z M 3208.515625 615.738281 " clip-rule="nonzero"/></clipPath><clipPath id="9597b190f6"><path d="M 3208.515625 615.738281 L 3552.5625 663.515625 L 3504.785156 1007.5625 L 3160.738281 959.785156 Z M 3208.515625 615.738281 " clip-rule="nonzero"/></clipPath><clipPath id="24cdec52fc"><path d="M 3208.515625 615.738281 L 3553.300781 663.617188 L 3505.421875 1008.40625 L 3160.632812 960.523438 Z M 3208.515625 615.738281 " clip-rule="nonzero"/></clipPath><clipPath id="1ed1d5d90f"><path d="M 3208.515625 615.738281 L 3553.300781 663.617188 L 3505.421875 1008.40625 L 3160.632812 960.523438 Z M 3208.515625 615.738281 " clip-rule="nonzero"/></clipPath><clipPath id="17f40d2186"><path d="M 3290 779 L 3359 779 L 3359 820 L 3290 820 Z M 3290 779 " clip-rule="nonzero"/></clipPath><clipPath id="11e1fa32d9"><path d="M 3208.515625 615.738281 L 3552.5625 663.515625 L 3504.785156 1007.5625 L 3160.738281 959.785156 Z M 3208.515625 615.738281 " clip-rule="nonzero"/></clipPath><clipPath id="2d8cb61283"><path d="M 3208.515625 615.738281 L 3552.5625 663.515625 L 3504.785156 1007.5625 L 3160.738281 959.785156 Z M 3208.515625 615.738281 " clip-rule="nonzero"/></clipPath><clipPath id="dea5e18534"><path d="M 3208.515625 615.738281 L 3553.300781 663.617188 L 3505.421875 1008.40625 L 3160.632812 960.523438 Z M 3208.515625 615.738281 " clip-rule="nonzero"/></clipPath><clipPath id="e757bda746"><path d="M 3208.515625 615.738281 L 3553.300781 663.617188 L 3505.421875 1008.40625 L 3160.632812 960.523438 Z M 3208.515625 615.738281 " clip-rule="nonzero"/></clipPath><clipPath id="32c7459201"><path d="M 3266 667 L 3446 667 L 3446 916 L 3266 916 Z M 3266 667 " clip-rule="nonzero"/></clipPath><clipPath id="94a2cc7543"><path d="M 3208.515625 615.738281 L 3552.5625 663.515625 L 3504.785156 1007.5625 L 3160.738281 959.785156 Z M 3208.515625 615.738281 " clip-rule="nonzero"/></clipPath><clipPath id="88877f617c"><path d="M 3208.515625 615.738281 L 3552.5625 663.515625 L 3504.785156 1007.5625 L 3160.738281 959.785156 Z M 3208.515625 615.738281 " clip-rule="nonzero"/></clipPath><clipPath id="5024244751"><path d="M 3208.515625 615.738281 L 3553.300781 663.617188 L 3505.421875 1008.40625 L 3160.632812 960.523438 Z M 3208.515625 615.738281 " clip-rule="nonzero"/></clipPath><clipPath id="c4d38fd16e"><path d="M 3208.515625 615.738281 L 3553.300781 663.617188 L 3505.421875 1008.40625 L 3160.632812 960.523438 Z M 3208.515625 615.738281 " clip-rule="nonzero"/></clipPath><clipPath id="3235d448a4"><path d="M 3261 662 L 3450 662 L 3450 921 L 3261 921 Z M 3261 662 " clip-rule="nonzero"/></clipPath><clipPath id="9080ae062a"><path d="M 3208.515625 615.738281 L 3552.5625 663.515625 L 3504.785156 1007.5625 L 3160.738281 959.785156 Z M 3208.515625 615.738281 " clip-rule="nonzero"/></clipPath><clipPath id="47dd134d63"><path d="M 3208.515625 615.738281 L 3552.5625 663.515625 L 3504.785156 1007.5625 L 3160.738281 959.785156 Z M 3208.515625 615.738281 " clip-rule="nonzero"/></clipPath><clipPath id="11fa719dc1"><path d="M 3208.515625 615.738281 L 3553.300781 663.617188 L 3505.421875 1008.40625 L 3160.632812 960.523438 Z M 3208.515625 615.738281 " clip-rule="nonzero"/></clipPath><clipPath id="2695463380"><path d="M 3208.515625 615.738281 L 3553.300781 663.617188 L 3505.421875 1008.40625 L 3160.632812 960.523438 Z M 3208.515625 615.738281 " clip-rule="nonzero"/></clipPath><clipPath id="59d253dbd1"><path d="M 3362 716 L 3398 716 L 3398 755 L 3362 755 Z M 3362 716 " clip-rule="nonzero"/></clipPath><clipPath id="00743d938b"><path d="M 3208.515625 615.738281 L 3552.5625 663.515625 L 3504.785156 1007.5625 L 3160.738281 959.785156 Z M 3208.515625 615.738281 " clip-rule="nonzero"/></clipPath><clipPath id="b9e43c0eb6"><path d="M 3208.515625 615.738281 L 3552.5625 663.515625 L 3504.785156 1007.5625 L 3160.738281 959.785156 Z M 3208.515625 615.738281 " clip-rule="nonzero"/></clipPath><clipPath id="877dc465fa"><path d="M 3208.515625 615.738281 L 3553.300781 663.617188 L 3505.421875 1008.40625 L 3160.632812 960.523438 Z M 3208.515625 615.738281 " clip-rule="nonzero"/></clipPath><clipPath id="91c2703267"><path d="M 3208.515625 615.738281 L 3553.300781 663.617188 L 3505.421875 1008.40625 L 3160.632812 960.523438 Z M 3208.515625 615.738281 " clip-rule="nonzero"/></clipPath><mask id="2b5faa0205"><g filter="url(#75ce4680fa)"><rect x="-518.4" width="6220.8" fill="#000000" y="-259.2" height="3110.400001" fill-opacity="0.5"/></g></mask><clipPath id="cda0212d7a"><path d="M 3 2 L 34 2 L 34 37 L 3 37 Z M 3 2 " clip-rule="nonzero"/></clipPath><clipPath id="0bab5f1744"><path d="M -153.484375 -100.261719 L 190.5625 -52.484375 L 142.785156 291.5625 L -201.261719 243.785156 Z M -153.484375 -100.261719 " clip-rule="nonzero"/></clipPath><clipPath id="c9a621046b"><path d="M -153.484375 -100.261719 L 190.5625 -52.484375 L 142.785156 291.5625 L -201.261719 243.785156 Z M -153.484375 -100.261719 " clip-rule="nonzero"/></clipPath><clipPath id="59aa229048"><path d="M -153.484375 -100.261719 L 191.300781 -52.382812 L 143.421875 292.40625 L -201.367188 244.523438 Z M -153.484375 -100.261719 " clip-rule="nonzero"/></clipPath><clipPath id="7bdc4f919d"><path d="M -153.484375 -100.261719 L 191.300781 -52.382812 L 143.421875 292.40625 L -201.367188 244.523438 Z M -153.484375 -100.261719 " clip-rule="nonzero"/></clipPath><clipPath id="1db8945624"><rect x="0" width="36" y="0" height="39"/></clipPath><clipPath id="7bf4040e75"><path d="M 3379 758 L 3432 758 L 3432 794 L 3379 794 Z M 3379 758 " clip-rule="nonzero"/></clipPath><clipPath id="fea4611735"><path d="M 3208.515625 615.738281 L 3552.5625 663.515625 L 3504.785156 1007.5625 L 3160.738281 959.785156 Z M 3208.515625 615.738281 " clip-rule="nonzero"/></clipPath><clipPath id="6fb6fbe0e7"><path d="M 3208.515625 615.738281 L 3552.5625 663.515625 L 3504.785156 1007.5625 L 3160.738281 959.785156 Z M 3208.515625 615.738281 " clip-rule="nonzero"/></clipPath><clipPath id="072056eb79"><path d="M 3208.515625 615.738281 L 3553.300781 663.617188 L 3505.421875 1008.40625 L 3160.632812 960.523438 Z M 3208.515625 615.738281 " clip-rule="nonzero"/></clipPath><clipPath id="57380fc24b"><path d="M 3208.515625 615.738281 L 3553.300781 663.617188 L 3505.421875 1008.40625 L 3160.632812 960.523438 Z M 3208.515625 615.738281 " clip-rule="nonzero"/></clipPath><mask id="13765d51e2"><g filter="url(#75ce4680fa)"><rect x="-518.4" width="6220.8" fill="#000000" y="-259.2" height="3110.400001" fill-opacity="0.5"/></g></mask><clipPath id="2f640eaa36"><path d="M 4 0.109375 L 51 0.109375 L 51 33 L 4 33 Z M 4 0.109375 " clip-rule="nonzero"/></clipPath><clipPath id="17d691bb3a"><path d="M -170.484375 -142.261719 L 173.5625 -94.484375 L 125.785156 249.5625 L -218.261719 201.785156 Z M -170.484375 -142.261719 " clip-rule="nonzero"/></clipPath><clipPath id="fb7f7d11e1"><path d="M -170.484375 -142.261719 L 173.5625 -94.484375 L 125.785156 249.5625 L -218.261719 201.785156 Z M -170.484375 -142.261719 " clip-rule="nonzero"/></clipPath><clipPath id="7f11774008"><path d="M -170.484375 -142.261719 L 174.300781 -94.382812 L 126.421875 250.40625 L -218.367188 202.523438 Z M -170.484375 -142.261719 " clip-rule="nonzero"/></clipPath><clipPath id="e25699458d"><path d="M -170.484375 -142.261719 L 174.300781 -94.382812 L 126.421875 250.40625 L -218.367188 202.523438 Z M -170.484375 -142.261719 " clip-rule="nonzero"/></clipPath><clipPath id="9a4c1a699c"><rect x="0" width="53" y="0" height="36"/></clipPath><clipPath id="5b6afc4707"><path d="M 3324 735 L 3413 735 L 3413 824 L 3324 824 Z M 3324 735 " clip-rule="nonzero"/></clipPath><clipPath id="62addaeb8b"><path d="M 3208.515625 615.738281 L 3552.5625 663.515625 L 3504.785156 1007.5625 L 3160.738281 959.785156 Z M 3208.515625 615.738281 " clip-rule="nonzero"/></clipPath><clipPath id="54dfc9dac3"><path d="M 3208.515625 615.738281 L 3552.5625 663.515625 L 3504.785156 1007.5625 L 3160.738281 959.785156 Z M 3208.515625 615.738281 " clip-rule="nonzero"/></clipPath><clipPath id="f744ce2ca3"><path d="M 3208.515625 615.738281 L 3553.300781 663.617188 L 3505.421875 1008.40625 L 3160.632812 960.523438 Z M 3208.515625 615.738281 " clip-rule="nonzero"/></clipPath><clipPath id="92ffca6df3"><path d="M 3208.515625 615.738281 L 3553.300781 663.617188 L 3505.421875 1008.40625 L 3160.632812 960.523438 Z M 3208.515625 615.738281 " clip-rule="nonzero"/></clipPath><mask id="5fe15bc0c7"><g filter="url(#75ce4680fa)"><rect x="-518.4" width="6220.8" fill="#000000" y="-259.2" height="3110.400001" fill-opacity="0.5"/></g></mask><clipPath id="6d8bda74f4"><path d="M 7 4 L 82 4 L 82 85 L 7 85 Z M 7 4 " clip-rule="nonzero"/></clipPath><clipPath id="522ac44ac1"><path d="M -115.484375 -119.261719 L 228.5625 -71.484375 L 180.785156 272.5625 L -163.261719 224.785156 Z M -115.484375 -119.261719 " clip-rule="nonzero"/></clipPath><clipPath id="883b02492a"><path d="M -115.484375 -119.261719 L 228.5625 -71.484375 L 180.785156 272.5625 L -163.261719 224.785156 Z M -115.484375 -119.261719 " clip-rule="nonzero"/></clipPath><clipPath id="b192da484a"><path d="M -115.484375 -119.261719 L 229.300781 -71.382812 L 181.421875 273.40625 L -163.367188 225.523438 Z M -115.484375 -119.261719 " clip-rule="nonzero"/></clipPath><clipPath id="50a99669f3"><path d="M -115.484375 -119.261719 L 229.300781 -71.382812 L 181.421875 273.40625 L -163.367188 225.523438 Z M -115.484375 -119.261719 " clip-rule="nonzero"/></clipPath><clipPath id="6745283f64"><rect x="0" width="89" y="0" height="89"/></clipPath></defs><path fill="#ffffff" d="M 1 0 L 5183 0 L 5183 2591 L 1 2591 Z M 1 0 " fill-opacity="1" fill-rule="nonzero"/><path fill="#ffffff" d="M 1 0 L 5183 0 L 5183 2591 L 1 2591 Z M 1 0 " fill-opacity="1" fill-rule="nonzero"/><g fill="#5813ea" fill-opacity="1"><g transform="translate(125.135838, 1718.158442)"><g><path d="M 398.578125 17.71875 C 333.617188 17.71875 276.535156 7.140625 227.328125 -14.015625 C 178.128906 -35.179688 138.765625 -64.460938 109.234375 -101.859375 C 79.710938 -139.253906 62 -182.554688 56.09375 -231.765625 L 246.53125 -231.765625 C 252.4375 -203.222656 268.425781 -178.863281 294.5 -158.6875 C 320.582031 -138.507812 354.289062 -128.421875 395.625 -128.421875 C 436.957031 -128.421875 467.21875 -136.785156 486.40625 -153.515625 C 505.59375 -170.253906 515.1875 -189.445312 515.1875 -211.09375 C 515.1875 -242.582031 501.410156 -263.984375 473.859375 -275.296875 C 446.304688 -286.617188 407.925781 -297.695312 358.71875 -308.53125 C 327.226562 -315.414062 295.242188 -323.78125 262.765625 -333.625 C 230.285156 -343.46875 200.515625 -356.015625 173.453125 -371.265625 C 146.390625 -386.515625 124.492188 -406.195312 107.765625 -430.3125 C 91.035156 -454.425781 82.671875 -484.195312 82.671875 -519.625 C 82.671875 -584.570312 108.503906 -639.1875 160.171875 -683.46875 C 211.835938 -727.757812 284.414062 -749.90625 377.90625 -749.90625 C 464.507812 -749.90625 533.644531 -729.726562 585.3125 -689.375 C 636.976562 -649.03125 667.734375 -593.429688 677.578125 -522.578125 L 498.953125 -522.578125 C 488.128906 -576.703125 447.289062 -603.765625 376.4375 -603.765625 C 341 -603.765625 313.6875 -596.875 294.5 -583.09375 C 275.3125 -569.320312 265.71875 -552.101562 265.71875 -531.4375 C 265.71875 -509.78125 279.988281 -492.554688 308.53125 -479.765625 C 337.070312 -466.972656 374.957031 -455.164062 422.1875 -444.34375 C 473.363281 -432.53125 520.359375 -419.488281 563.171875 -405.21875 C 605.984375 -390.945312 640.179688 -369.785156 665.765625 -341.734375 C 691.359375 -313.691406 704.15625 -273.59375 704.15625 -221.4375 C 705.132812 -176.164062 693.320312 -135.320312 668.71875 -98.90625 C 644.113281 -62.488281 608.679688 -33.945312 562.421875 -13.28125 C 516.171875 7.382812 461.554688 17.71875 398.578125 17.71875 Z M 398.578125 17.71875 "/></g></g></g><g fill="#5813ea" fill-opacity="1"><g transform="translate(900.126644, 1718.158442)"><g><path d="M 95.953125 0 L 95.953125 -732.203125 L 262.765625 -732.203125 L 277.53125 -608.203125 C 300.164062 -651.503906 332.882812 -685.945312 375.6875 -711.53125 C 418.5 -737.113281 468.9375 -749.90625 527 -749.90625 C 617.539062 -749.90625 687.90625 -721.363281 738.09375 -664.28125 C 788.289062 -607.207031 813.390625 -523.5625 813.390625 -413.34375 L 813.390625 0 L 624.4375 0 L 624.4375 -395.625 C 624.4375 -458.601562 611.640625 -506.820312 586.046875 -540.28125 C 560.460938 -573.75 520.609375 -590.484375 466.484375 -590.484375 C 413.335938 -590.484375 369.785156 -571.785156 335.828125 -534.390625 C 301.878906 -496.992188 284.90625 -444.832031 284.90625 -377.90625 L 284.90625 0 Z M 95.953125 0 "/></g></g></g><g fill="#5813ea" fill-opacity="1"><g transform="translate(1797.63991, 1718.158442)"><g><path d="M 95.953125 0 L 95.953125 -732.203125 L 284.90625 -732.203125 L 284.90625 0 Z M 95.953125 0 "/></g></g></g><g fill="#5813ea" fill-opacity="1"><g transform="translate(2179.968665, 1718.158442)"><g><path d="M 95.953125 324.765625 L 95.953125 -732.203125 L 264.234375 -732.203125 L 284.90625 -627.390625 C 308.53125 -659.859375 339.773438 -688.394531 378.640625 -713 C 417.515625 -737.601562 467.953125 -749.90625 529.953125 -749.90625 C 598.847656 -749.90625 660.359375 -733.175781 714.484375 -699.71875 C 768.609375 -666.257812 811.414062 -620.5 842.90625 -562.4375 C 874.40625 -504.375 890.15625 -438.4375 890.15625 -364.625 C 890.15625 -290.8125 874.40625 -225.117188 842.90625 -167.546875 C 811.414062 -109.972656 768.609375 -64.703125 714.484375 -31.734375 C 660.359375 1.234375 598.847656 17.71875 529.953125 17.71875 C 474.847656 17.71875 426.625 7.382812 385.28125 -13.28125 C 343.945312 -33.945312 310.488281 -62.976562 284.90625 -100.375 L 284.90625 324.765625 Z M 490.09375 -147.625 C 550.125 -147.625 599.820312 -167.796875 639.1875 -208.140625 C 678.5625 -248.492188 698.25 -300.65625 698.25 -364.625 C 698.25 -428.59375 678.5625 -481.242188 639.1875 -522.578125 C 599.820312 -563.910156 550.125 -584.578125 490.09375 -584.578125 C 429.082031 -584.578125 379.140625 -564.15625 340.265625 -523.3125 C 301.390625 -482.46875 281.953125 -430.0625 281.953125 -366.09375 C 281.953125 -302.125 301.390625 -249.71875 340.265625 -208.875 C 379.140625 -168.039062 429.082031 -147.625 490.09375 -147.625 Z M 490.09375 -147.625 "/></g></g></g><g fill="#5813ea" fill-opacity="1"><g transform="translate(3142.433456, 1718.158442)"><g><path d="M 95.953125 0 L 95.953125 -732.203125 L 284.90625 -732.203125 L 284.90625 0 Z M 95.953125 0 "/></g></g></g><g fill="#5813ea" fill-opacity="1"><g transform="translate(3524.762016, 1718.158442)"><g><path d="M 129.90625 0 L 129.90625 -574.25 L 29.53125 -574.25 L 29.53125 -732.203125 L 129.90625 -732.203125 L 129.90625 -817.8125 C 129.90625 -906.382812 152.289062 -969.367188 197.0625 -1006.765625 C 241.84375 -1044.160156 302.617188 -1062.859375 379.390625 -1062.859375 L 460.578125 -1062.859375 L 460.578125 -901.953125 L 408.90625 -901.953125 C 376.425781 -901.953125 353.296875 -895.554688 339.515625 -882.765625 C 325.742188 -869.972656 318.859375 -848.320312 318.859375 -817.8125 L 318.859375 -732.203125 L 476.8125 -732.203125 L 476.8125 -574.25 L 318.859375 -574.25 L 318.859375 0 Z M 129.90625 0 "/></g></g></g><g fill="#5813ea" fill-opacity="1"><g transform="translate(4054.707902, 1718.158442)"><g><path d="M 187.484375 324.765625 L 357.234375 -48.71875 L 312.953125 -48.71875 L 28.046875 -732.203125 L 233.234375 -732.203125 L 438.4375 -217 L 652.484375 -732.203125 L 853.25 -732.203125 L 388.234375 324.765625 Z M 187.484375 324.765625 "/></g></g></g><g clip-path="url(#323c8ce173)"><g clip-path="url(#1dd2816de0)"><g clip-path="url(#deff6710c6)"><path fill="#f8cf29" d="M 1948.976562 845 C 1948.976562 845 1950.457031 824.707031 1943.265625 815.300781 C 1925.929688 792.660156 1907.027344 751.542969 1944.824219 694.234375 C 1979.351562 641.9375 2117.996094 673.761719 2114.265625 761.765625 C 2112.273438 808.796875 2086.804688 825.652344 2041.339844 851.257812 C 2020.074219 863.242188 2027.164062 863.980469 2018.902344 869.363281 L 1948.976562 845 " fill-opacity="1" fill-rule="evenodd"/></g></g></g><g clip-path="url(#b877ac9319)"><g clip-path="url(#cafe470eec)"><g clip-path="url(#51ca83c9a2)"><g clip-path="url(#82bb2ca7ac)"><g clip-path="url(#38bea7c07e)"><path fill="#dfeae2" d="M 1938.507812 837.21875 C 1938.464844 837.246094 1938.390625 837.261719 1938.3125 837.3125 C 1935.703125 838.574219 1933.660156 840.835938 1932.710938 843.585938 C 1931.722656 846.367188 1931.890625 849.378906 1933.179688 852.027344 C 1933.789062 853.273438 1934.636719 854.402344 1935.625 855.355469 C 1934.253906 855.453125 1932.894531 855.796875 1931.648438 856.40625 C 1929.007812 857.664062 1926.996094 859.929688 1926.007812 862.707031 C 1925.0625 865.460938 1925.226562 868.472656 1926.484375 871.113281 C 1927.398438 872.984375 1928.800781 874.550781 1930.519531 875.640625 C 1928.496094 875.414062 1926.410156 875.761719 1924.539062 876.675781 C 1921.933594 877.941406 1919.890625 880.199219 1918.941406 882.953125 C 1917.960938 885.699219 1918.152344 888.75 1919.410156 891.390625 C 1920.28125 893.148438 1921.558594 894.652344 1923.179688 895.71875 C 1923.449219 897.09375 1923.863281 898.433594 1924.507812 899.691406 C 1926.40625 903.722656 1929.84375 906.800781 1934.035156 908.253906 C 1949.414062 913.644531 1976.410156 923.066406 1991.65625 928.425781 C 1997.507812 930.46875 2003.710938 929.070312 2008.070312 925.308594 C 2009.886719 925.382812 2011.691406 925.039062 2013.367188 924.21875 C 2015.976562 922.953125 2018.019531 920.695312 2018.96875 917.945312 C 2019.921875 915.15625 2019.757812 912.144531 2018.5 909.503906 C 2017.617188 907.640625 2016.210938 906.105469 2014.5 904.984375 C 2016.519531 905.210938 2018.574219 904.855469 2020.4375 903.972656 C 2023.085938 902.683594 2025.09375 900.417969 2026.042969 897.664062 C 2027.023438 894.917969 2026.863281 891.875 2025.574219 889.226562 C 2024.964844 887.980469 2024.121094 886.851562 2023.125 885.929688 C 2024.496094 885.832031 2025.859375 885.457031 2027.105469 884.847656 C 2029.746094 883.589844 2031.757812 881.324219 2032.738281 878.578125 C 2033.695312 875.792969 2033.527344 872.78125 2032.269531 870.140625 C 2032.222656 870.058594 2032.195312 870.019531 2032.179688 869.945312 C 2076.816406 865.546875 2117.191406 835.792969 2133.03125 790.476562 C 2154.757812 728.375 2122.226562 660.398438 2060.441406 638.8125 C 1998.660156 617.195312 1930.84375 650.074219 1909.140625 712.214844 C 1893.269531 757.523438 1906.332031 805.960938 1938.507812 837.21875 Z M 2010.402344 914.925781 C 2010.214844 915.433594 2009.886719 915.808594 2009.417969 916.046875 C 2008.949219 916.28125 2008.425781 916.300781 2007.949219 916.121094 C 1991.285156 910.296875 1945.332031 894.242188 1928.703125 888.425781 C 1928.21875 888.277344 1927.820312 887.910156 1927.582031 887.4375 C 1927.378906 886.976562 1927.328125 886.449219 1927.507812 885.96875 C 1927.660156 885.453125 1928.03125 885.054688 1928.492188 884.851562 C 1928.960938 884.613281 1929.484375 884.59375 1929.96875 884.742188 C 1946.628906 890.566406 1992.578125 906.65625 2009.207031 912.472656 C 2009.691406 912.617188 2010.089844 912.988281 2010.328125 913.457031 C 2010.53125 913.917969 2010.582031 914.449219 2010.402344 914.925781 Z M 2017.46875 894.679688 C 2017.324219 895.164062 2016.953125 895.5625 2016.484375 895.800781 C 2016.023438 896.003906 2015.5 896.023438 2015.015625 895.875 C 1998.355469 890.050781 1952.429688 874.003906 1935.769531 868.179688 C 1935.292969 868 1934.894531 867.632812 1934.691406 867.167969 C 1934.453125 866.699219 1934.433594 866.175781 1934.582031 865.691406 C 1934.761719 865.214844 1935.128906 864.816406 1935.597656 864.578125 C 1936.027344 864.367188 1936.589844 864.324219 1937.070312 864.503906 C 1953.699219 870.320312 1999.652344 886.378906 2016.28125 892.195312 C 2016.792969 892.378906 2017.199219 892.714844 2017.402344 893.179688 C 2017.640625 893.648438 2017.648438 894.203125 2017.46875 894.679688 Z M 2024.171875 875.5625 C 2023.988281 876.070312 2023.652344 876.476562 2023.1875 876.679688 C 2022.71875 876.917969 2022.164062 876.929688 2021.6875 876.75 C 2005.050781 870.964844 1959.101562 854.875 1942.472656 849.058594 C 1941.957031 848.90625 1941.589844 848.542969 1941.351562 848.074219 C 1941.117188 847.605469 1941.097656 847.082031 1941.277344 846.605469 C 1941.285156 846.574219 1941.285156 846.574219 1941.285156 846.574219 C 1941.433594 846.089844 1941.800781 845.691406 1942.261719 845.484375 C 1942.730469 845.25 1943.253906 845.230469 1943.730469 845.410156 C 1960.402344 851.203125 2006.316406 867.28125 2022.976562 873.105469 C 2023.464844 873.253906 2023.863281 873.621094 2024.097656 874.089844 C 2024.304688 874.554688 2024.320312 875.078125 2024.171875 875.5625 Z M 1949.738281 835.289062 L 2025.113281 861.640625 C 2025.613281 861.410156 2026.125 861.289062 2026.683594 861.277344 C 2069.753906 858.867188 2109.296875 830.921875 2124.457031 787.492188 C 2144.535156 730.125 2114.507812 667.320312 2057.421875 647.378906 C 2000.375 627.410156 1937.757812 657.828125 1917.683594 715.191406 C 1902.355469 759.035156 1916.300781 806.054688 1949.1875 834.679688 C 1949.417969 834.871094 1949.578125 835.078125 1949.738281 835.289062 " fill-opacity="1" fill-rule="evenodd"/></g></g></g></g></g><g clip-path="url(#cfb798dbaf)"><g clip-path="url(#cf69350c81)"><g clip-path="url(#242cd500a0)"><path fill="#dfeae2" d="M 2015.652344 781.644531 C 2011.527344 782.144531 2007.140625 781.371094 2003.6875 778.222656 C 2005.960938 776.46875 2008.035156 774.214844 2009.785156 771.441406 C 2011.769531 768.234375 2012.894531 763.378906 2012.191406 759.242188 C 2011.316406 754.203125 2008.199219 750.058594 2001.855469 749.523438 C 1998.601562 749.253906 1995.273438 750.941406 1992.855469 754.527344 C 1989.894531 758.957031 1988.351562 766.828125 1990.894531 774.503906 C 1990.269531 774.667969 1989.652344 774.804688 1989.074219 774.910156 C 1988.671875 774.992188 1988.28125 775.039062 1987.882812 775.121094 C 1987.652344 773.132812 1987.375 771.339844 1987.011719 769.769531 C 1985.890625 765.050781 1984.597656 759.738281 1982.203125 755.902344 C 1980.082031 752.507812 1977.171875 750.140625 1973.265625 749.410156 C 1969.8125 748.785156 1966.390625 750.136719 1963.835938 752.964844 C 1960.699219 756.355469 1958.9375 761.890625 1959.992188 766.734375 C 1960.929688 771.0625 1963.953125 776.671875 1967.878906 780.308594 C 1971.101562 783.265625 1974.871094 784.898438 1978.550781 784.539062 C 1978.792969 784.527344 1979.144531 784.503906 1979.585938 784.539062 C 1980.570312 809.273438 1975.671875 848.996094 1975.671875 848.996094 C 1975.371094 851.484375 1977.128906 853.757812 1979.617188 854.054688 C 1982.105469 854.355469 1984.375 852.597656 1984.675781 850.109375 C 1984.675781 850.109375 1989.457031 810.015625 1988.550781 784.191406 C 1989.265625 784.082031 1990.015625 783.976562 1990.773438 783.84375 C 1992.296875 783.539062 1993.839844 783.132812 1995.375 782.625 C 2001.777344 790.363281 2010.832031 791.867188 2018.867188 790.304688 C 2019.5625 791.332031 2020.273438 792.289062 2021.09375 793.238281 C 2022.027344 794.285156 2023.039062 795.28125 2024.078125 796.175781 C 2006.828125 817.695312 1988.25 852.148438 1988.25 852.148438 C 1987.046875 854.355469 1987.894531 857.113281 1990.074219 858.304688 C 1992.292969 859.476562 1995.046875 858.628906 1996.242188 856.449219 C 1996.242188 856.449219 2014.667969 821.757812 2031.347656 801.351562 C 2034.789062 803.355469 2037.664062 804.539062 2038.386719 804.84375 C 2046.507812 808.140625 2057.140625 807.003906 2061.585938 799.738281 C 2066.699219 791.378906 2066.121094 782.8125 2059.875 778.738281 C 2051.917969 773.546875 2043.46875 778.089844 2037.613281 782.335938 C 2035.210938 784.0625 2032.652344 786.441406 2029.984375 789.316406 C 2029.269531 788.667969 2028.5625 787.984375 2027.9375 787.253906 L 2027.828125 787.125 C 2032.710938 784.554688 2036.796875 780.9375 2039.183594 777.339844 C 2041.578125 773.714844 2042.363281 770.023438 2041.597656 767.046875 C 2040.984375 764.625 2039.476562 762.476562 2036.648438 760.957031 C 2031.445312 758.199219 2026.902344 759.601562 2023.210938 763 C 2020.480469 765.550781 2018.316406 769.371094 2016.996094 772.695312 C 2015.746094 775.859375 2015.363281 778.847656 2015.652344 781.644531 Z M 1978.804688 775.507812 C 1978.636719 774.15625 1978.402344 772.925781 1978.167969 771.835938 C 1977.402344 768.582031 1976.644531 764.984375 1975.246094 762.070312 C 1974.410156 760.285156 1973.4375 758.679688 1971.617188 758.328125 C 1971.378906 758.304688 1971.234375 758.480469 1971.03125 758.605469 C 1970.613281 758.925781 1970.269531 759.363281 1969.953125 759.84375 C 1969.039062 761.253906 1968.5 763.136719 1968.871094 764.8125 C 1969.460938 767.644531 1971.484375 771.292969 1974.050781 773.648438 C 1975.191406 774.707031 1976.359375 775.632812 1977.671875 775.488281 C 1977.949219 775.484375 1978.332031 775.46875 1978.804688 775.507812 Z M 2037.507812 794.445312 C 2039.636719 795.558594 2041.3125 796.222656 2041.785156 796.433594 C 2044.152344 797.398438 2046.847656 797.847656 2049.316406 797.488281 C 2051.167969 797.257812 2052.886719 796.550781 2053.839844 794.972656 C 2055.164062 792.824219 2056.003906 790.703125 2056.035156 788.773438 C 2056.023438 787.769531 2055.78125 786.882812 2054.9375 786.34375 C 2053.167969 785.171875 2051.339844 785.304688 2049.625 785.839844 C 2047.15625 786.652344 2044.84375 788.292969 2042.929688 789.683594 C 2041.1875 790.941406 2039.371094 792.523438 2037.507812 794.445312 Z M 1999.109375 770.214844 C 2000.203125 769.226562 2001.203125 768.039062 2002.085938 766.617188 C 2003.0625 765.082031 2003.570312 762.746094 2003.234375 760.765625 C 2003.058594 759.722656 2002.542969 758.808594 2001.316406 758.59375 C 2001.089844 758.816406 2000.359375 759.582031 2000.039062 760.234375 C 1999 762.171875 1998.46875 764.917969 1998.726562 767.847656 C 1998.789062 768.621094 1998.917969 769.410156 1999.109375 770.214844 Z M 2024.792969 778.4375 C 2027.710938 776.726562 2030.15625 774.527344 2031.601562 772.304688 C 2032.121094 771.558594 2032.5 770.816406 2032.699219 770.105469 C 2032.839844 769.652344 2032.839844 769.203125 2032.378906 768.957031 C 2031.207031 768.339844 2030.210938 768.90625 2029.375 769.679688 C 2027.617188 771.3125 2026.296875 773.878906 2025.453125 776.03125 C 2025.125 776.855469 2024.902344 777.667969 2024.792969 778.4375 " fill-opacity="1" fill-rule="evenodd"/></g></g></g><g clip-path="url(#eaf64e690d)"><g clip-path="url(#3d813fa089)"><g clip-path="url(#4a47efcd97)"><path fill="#dfeae2" d="M 2069.480469 620.785156 L 2078.175781 595.90625 C 2079 593.539062 2077.769531 590.9375 2075.402344 590.113281 C 2073.035156 589.289062 2070.433594 590.519531 2069.609375 592.886719 L 2060.910156 617.800781 C 2060.085938 620.167969 2061.324219 622.738281 2063.691406 623.558594 C 2066.050781 624.417969 2068.660156 623.152344 2069.480469 620.785156 " fill-opacity="1" fill-rule="evenodd"/></g></g></g><g clip-path="url(#201bcfffda)"><g clip-path="url(#6be12d0fb4)"><g clip-path="url(#0e8e90d520)"><path fill="#dfeae2" d="M 2125.847656 659.089844 L 2147.082031 643.953125 C 2149.113281 642.488281 2149.59375 639.660156 2148.128906 637.628906 C 2146.703125 635.570312 2143.835938 635.117188 2141.8125 636.546875 L 2120.578125 651.683594 C 2118.546875 653.152344 2118.058594 656.011719 2119.523438 658.042969 C 2120.988281 660.074219 2123.816406 660.554688 2125.847656 659.089844 " fill-opacity="1" fill-rule="evenodd"/></g></g></g><g clip-path="url(#f2f31084c5)"><g clip-path="url(#25762d7f55)"><g clip-path="url(#66bf1815bd)"><g clip-path="url(#bd9a056425)"><g clip-path="url(#888d2c25b2)"><path fill="#dfeae2" d="M 2148.683594 707.269531 L 2174.117188 701.605469 C 2176.558594 701.066406 2178.125 698.628906 2177.585938 696.1875 C 2177.042969 693.746094 2174.605469 692.179688 2172.164062 692.71875 L 2146.6875 698.40625 C 2144.246094 698.949219 2142.71875 701.359375 2143.253906 703.835938 C 2143.796875 706.277344 2146.242188 707.808594 2148.683594 707.269531 " fill-opacity="1" fill-rule="evenodd"/></g></g></g></g></g><g clip-path="url(#2cba5bf50d)"><g clip-path="url(#ec957360e3)"><g clip-path="url(#89f1dabf5c)"><path fill="#dfeae2" d="M 2011.660156 614.1875 L 2007.164062 588.503906 C 2006.734375 586.019531 2004.386719 584.367188 2001.902344 584.796875 C 1999.449219 585.230469 1997.800781 587.582031 1998.230469 590.066406 L 2002.726562 615.75 C 2003.128906 618.195312 2005.511719 619.851562 2007.953125 619.449219 C 2010.4375 619.019531 2012.09375 616.640625 2011.660156 614.1875 " fill-opacity="1" fill-rule="evenodd"/></g></g></g><g clip-path="url(#598c1dabcd)"><g clip-path="url(#db45436e05)"><g clip-path="url(#e74728830b)"><path fill="#dfeae2" d="M 1960.480469 630.726562 L 1944.132812 610.390625 C 1942.574219 608.472656 1939.707031 608.15625 1937.757812 609.710938 C 1935.800781 611.296875 1935.484375 614.164062 1937.078125 616.085938 L 1953.390625 636.417969 C 1954.980469 638.375 1957.84375 638.691406 1959.800781 637.105469 C 1961.75 635.550781 1962.035156 632.675781 1960.480469 630.726562 " fill-opacity="1" fill-rule="evenodd"/></g></g></g><g clip-path="url(#973390ffbd)"><g clip-path="url(#4f635026fa)"><g clip-path="url(#81bc9fe5a5)"><g clip-path="url(#7e922196cb)"><g clip-path="url(#e3bd9d28d4)"><path fill="#fdf7fa" d="M 3455.035156 754.496094 C 3452.707031 751.347656 3449.296875 749.273438 3445.429688 748.652344 C 3445.429688 748.652344 3419.234375 744.4375 3419.234375 744.4375 C 3419.234375 744.4375 3453.917969 695.929688 3453.917969 695.929688 C 3456.167969 692.785156 3457.640625 689.097656 3458.171875 685.265625 C 3458.171875 685.265625 3459.636719 674.726562 3459.636719 674.726562 C 3460.917969 665.476562 3455.53125 656.578125 3446.820312 653.566406 C 3445.621094 653.152344 3444.378906 652.855469 3443.128906 652.679688 C 3438.496094 652.039062 3433.792969 653.089844 3429.875 655.640625 C 3429.117188 656.121094 3428.386719 656.660156 3427.703125 657.238281 C 3427.703125 657.238281 3319 749.523438 3319 749.523438 C 3319 749.523438 3288.328125 775.425781 3288.328125 775.425781 C 3285.34375 777.949219 3283.402344 781.46875 3282.863281 785.34375 C 3282.863281 785.34375 3281.183594 797.445312 3281.183594 797.445312 C 3279.363281 810.539062 3288.539062 822.675781 3301.636719 824.492188 C 3301.636719 824.492188 3305.378906 825.011719 3305.378906 825.011719 C 3305.378906 825.011719 3252.65625 903.285156 3252.65625 903.285156 C 3252.65625 903.285156 3250.273438 920.441406 3250.273438 920.441406 C 3248.519531 933.074219 3257.378906 944.78125 3270.023438 946.535156 C 3276.589844 947.449219 3283.25 945.472656 3288.289062 941.117188 C 3288.289062 941.117188 3442.816406 807.605469 3442.816406 807.605469 C 3449.507812 801.820312 3453.863281 793.8125 3455.082031 785.054688 C 3455.082031 785.054688 3457.8125 765.394531 3457.8125 765.394531 C 3458.347656 761.515625 3457.363281 757.644531 3455.035156 754.496094 Z M 3455.035156 754.496094 " fill-opacity="1" fill-rule="nonzero"/></g></g></g></g></g><g clip-path="url(#2b90d643ca)"><g clip-path="url(#0c00b19592)"><g clip-path="url(#4514a6d768)"><g clip-path="url(#e361e444c6)"><g clip-path="url(#6116faf1fc)"><path fill="#ff7d00" d="M 3384.371094 763.808594 C 3384.253906 763.792969 3384.136719 763.773438 3384.019531 763.746094 C 3384.019531 763.746094 3374.886719 761.785156 3374.886719 761.785156 C 3373.273438 761.441406 3371.945312 760.292969 3371.371094 758.742188 C 3370.796875 757.195312 3371.050781 755.457031 3372.046875 754.140625 C 3372.046875 754.140625 3436.574219 668.933594 3436.574219 668.933594 C 3437.648438 667.523438 3439.394531 666.804688 3441.132812 667.046875 C 3443.796875 667.417969 3445.664062 669.886719 3445.292969 672.550781 C 3445.292969 672.550781 3443.804688 683.269531 3443.804688 683.269531 C 3443.59375 684.789062 3443.011719 686.246094 3442.121094 687.492188 C 3442.121094 687.492188 3388.96875 761.832031 3388.96875 761.832031 C 3387.917969 763.300781 3386.140625 764.054688 3384.371094 763.808594 Z M 3384.371094 763.808594 " fill-opacity="1" fill-rule="nonzero"/></g></g></g></g></g><g clip-path="url(#43fe99ef3f)"><g clip-path="url(#71bf023227)"><g clip-path="url(#c612380696)"><g clip-path="url(#f1ea8b70d3)"><g clip-path="url(#8e2078ead4)"><path fill="#f8cf29" d="M 3440.46875 671.835938 C 3440.492188 671.839844 3440.507812 671.859375 3440.503906 671.886719 C 3440.503906 671.886719 3439.015625 682.605469 3439.015625 682.605469 C 3438.914062 683.355469 3438.628906 684.066406 3438.1875 684.683594 C 3438.1875 684.683594 3385.035156 759.019531 3385.035156 759.019531 C 3385.035156 759.019531 3375.902344 757.058594 3375.902344 757.058594 C 3375.902344 757.058594 3440.429688 671.851562 3440.429688 671.851562 C 3440.4375 671.839844 3440.453125 671.832031 3440.46875 671.835938 Z M 3441.796875 662.257812 C 3438.320312 661.773438 3434.839844 663.214844 3432.71875 666.015625 C 3432.71875 666.015625 3368.195312 751.222656 3368.195312 751.222656 C 3366.199219 753.855469 3365.6875 757.328125 3366.839844 760.425781 C 3367.988281 763.523438 3370.640625 765.820312 3373.875 766.511719 C 3373.875 766.511719 3383.003906 768.472656 3383.003906 768.472656 C 3383.238281 768.523438 3383.472656 768.566406 3383.707031 768.597656 C 3387.25 769.089844 3390.800781 767.582031 3392.902344 764.644531 C 3392.902344 764.644531 3446.054688 690.304688 3446.054688 690.304688 C 3447.398438 688.425781 3448.277344 686.222656 3448.59375 683.933594 C 3448.59375 683.933594 3450.082031 673.214844 3450.082031 673.214844 C 3450.820312 667.910156 3447.101562 662.996094 3441.796875 662.257812 Z M 3441.796875 662.257812 " fill-opacity="1" fill-rule="nonzero"/></g></g></g></g></g><g clip-path="url(#1be1e74375)"><g clip-path="url(#e9d8a06cb3)"><g clip-path="url(#bbfa7f0bde)"><g clip-path="url(#c758b3fd5e)"><g clip-path="url(#3c03487c30)"><path fill="#ff7d00" d="M 3272.019531 932.171875 C 3267.296875 931.515625 3263.984375 927.148438 3264.636719 922.4375 C 3264.636719 922.4375 3266.40625 909.710938 3266.40625 909.710938 C 3266.566406 908.546875 3267.152344 907.476562 3268.042969 906.710938 C 3268.042969 906.710938 3434.90625 763.382812 3434.90625 763.382812 C 3435.980469 762.464844 3437.375 762.078125 3438.722656 762.261719 C 3439.292969 762.34375 3439.851562 762.523438 3440.375 762.808594 C 3442.136719 763.769531 3443.121094 765.726562 3442.847656 767.71875 C 3442.847656 767.71875 3440.714844 783.058594 3440.714844 783.058594 C 3439.984375 788.332031 3437.363281 793.148438 3433.335938 796.628906 C 3433.335938 796.628906 3278.808594 930.144531 3278.808594 930.144531 C 3276.898438 931.792969 3274.488281 932.511719 3272.019531 932.171875 Z M 3272.019531 932.171875 " fill-opacity="1" fill-rule="nonzero"/></g></g></g></g></g><g clip-path="url(#5501770620)"><g clip-path="url(#b40b9e3f99)"><g clip-path="url(#9257b654c9)"><g clip-path="url(#f0075293bd)"><g clip-path="url(#16d5c4f103)"><path fill="#f8cf29" d="M 3438.058594 767.050781 C 3438.058594 767.050781 3435.925781 782.394531 3435.925781 782.394531 C 3435.355469 786.5 3433.3125 790.257812 3430.175781 792.96875 C 3430.175781 792.96875 3275.648438 926.484375 3275.648438 926.484375 C 3274.746094 927.261719 3273.679688 927.519531 3272.683594 927.382812 C 3270.765625 927.113281 3269.109375 925.378906 3269.425781 923.101562 C 3269.425781 923.101562 3271.195312 910.375 3271.195312 910.375 C 3271.195312 910.375 3438.058594 767.050781 3438.058594 767.050781 Z M 3439.386719 757.476562 C 3436.691406 757.101562 3433.902344 757.875 3431.757812 759.71875 C 3431.757812 759.71875 3264.894531 903.042969 3264.894531 903.042969 C 3263.105469 904.578125 3261.941406 906.710938 3261.617188 909.046875 C 3261.617188 909.046875 3259.847656 921.773438 3259.847656 921.773438 C 3259.328125 925.527344 3260.351562 929.199219 3262.726562 932.113281 C 3264.894531 934.765625 3267.957031 936.488281 3271.355469 936.957031 C 3275.164062 937.488281 3279.035156 936.335938 3281.96875 933.800781 C 3281.96875 933.800781 3436.496094 800.289062 3436.496094 800.289062 C 3441.410156 796.039062 3444.609375 790.15625 3445.503906 783.722656 C 3445.503906 783.722656 3447.632812 768.382812 3447.632812 768.382812 C 3448.1875 764.398438 3446.21875 760.492188 3442.6875 758.566406 C 3441.640625 757.992188 3440.523438 757.632812 3439.386719 757.476562 Z M 3439.386719 757.476562 " fill-opacity="1" fill-rule="nonzero"/></g></g></g></g></g><g clip-path="url(#f0d18dccd6)"><g clip-path="url(#dd22398bbe)"><g clip-path="url(#5a4b577588)"><g clip-path="url(#84c1870ef7)"><g clip-path="url(#83c5dd2e66)"><g mask="url(#e7caf028af)"><g transform="matrix(1, 0, 0, 1, 3407, 771)"><g clip-path="url(#fbeb7eee0f)"><g clip-path="url(#4dba70a573)"><g clip-path="url(#0c94c4345f)"><g clip-path="url(#399be27317)"><g clip-path="url(#b2c01ecb5e)"><g clip-path="url(#34ed1f8ad8)"><path fill="#fdf7fa" d="M 1.898438 40.355469 C 1.898438 40.355469 20.679688 24.125 20.679688 24.125 C 20.679688 24.125 22.609375 3.308594 22.609375 3.308594 C 22.609375 3.308594 3.054688 20.105469 3.054688 20.105469 C 3.054688 20.105469 1.898438 40.355469 1.898438 40.355469 Z M 1.898438 40.355469 " fill-opacity="1" fill-rule="nonzero"/></g></g></g></g></g></g></g></g></g></g></g></g></g><g clip-path="url(#8631c2abbc)"><g clip-path="url(#fac3ef22ac)"><g clip-path="url(#26c2246801)"><g clip-path="url(#012a71b26b)"><g clip-path="url(#8a8e36a1bf)"><g mask="url(#f2f787184b)"><g transform="matrix(1, 0, 0, 1, 3373, 791)"><g clip-path="url(#e7a539d1f9)"><g clip-path="url(#bdd6d54ee9)"><g clip-path="url(#392694c541)"><g clip-path="url(#c155e23ba1)"><g clip-path="url(#83d5fbe1a7)"><g clip-path="url(#51ea974905)"><path fill="#fdf7fa" d="M 29.628906 25.769531 C 29.628906 25.769531 32.667969 3.871094 32.667969 3.871094 C 32.667969 3.871094 3.332031 29.070312 3.332031 29.070312 C 3.332031 29.070312 0.757812 50.714844 0.757812 50.714844 C 0.757812 50.714844 29.628906 25.769531 29.628906 25.769531 Z M 29.628906 25.769531 " fill-opacity="1" fill-rule="nonzero"/></g></g></g></g></g></g></g></g></g></g></g></g></g><g clip-path="url(#06030062ee)"><g clip-path="url(#e8e423c48c)"><g clip-path="url(#9597b190f6)"><g clip-path="url(#24cdec52fc)"><g clip-path="url(#1ed1d5d90f)"><path fill="#ff7d00" d="M 3303.632812 810.125 C 3298.457031 809.40625 3294.832031 804.613281 3295.550781 799.4375 C 3295.550781 799.4375 3297.042969 788.667969 3297.042969 788.667969 C 3297.410156 786.023438 3299.855469 784.179688 3302.5 784.546875 C 3302.5 784.546875 3349.039062 791.007812 3349.039062 791.007812 C 3350.691406 791.238281 3352.109375 792.300781 3352.789062 793.824219 C 3353.46875 795.347656 3353.316406 797.113281 3352.382812 798.496094 C 3352.382812 798.496094 3342.738281 812.820312 3342.738281 812.820312 C 3341.707031 814.351562 3339.890625 815.160156 3338.0625 814.90625 C 3338.0625 814.90625 3303.632812 810.125 3303.632812 810.125 Z M 3303.632812 810.125 " fill-opacity="1" fill-rule="nonzero"/></g></g></g></g></g><g clip-path="url(#17f40d2186)"><g clip-path="url(#11e1fa32d9)"><g clip-path="url(#2d8cb61283)"><g clip-path="url(#dea5e18534)"><g clip-path="url(#e757bda746)"><path fill="#f8cf29" d="M 3348.375 795.796875 C 3348.375 795.796875 3338.726562 810.121094 3338.726562 810.121094 C 3338.726562 810.121094 3304.296875 805.339844 3304.296875 805.339844 C 3301.757812 804.984375 3299.984375 802.640625 3300.339844 800.105469 C 3300.339844 800.105469 3301.835938 789.335938 3301.835938 789.335938 C 3301.835938 789.335938 3348.375 795.796875 3348.375 795.796875 Z M 3349.703125 786.21875 C 3349.703125 786.21875 3303.164062 779.757812 3303.164062 779.757812 C 3297.875 779.023438 3292.992188 782.714844 3292.257812 788.003906 C 3292.257812 788.003906 3290.761719 798.773438 3290.761719 798.773438 C 3289.675781 806.589844 3295.152344 813.828125 3302.964844 814.914062 C 3302.964844 814.914062 3337.398438 819.695312 3337.398438 819.695312 C 3341.054688 820.203125 3344.683594 818.585938 3346.746094 815.523438 C 3346.746094 815.523438 3356.394531 801.199219 3356.394531 801.199219 C 3358.257812 798.433594 3358.5625 794.898438 3357.203125 791.855469 C 3355.84375 788.808594 3353.007812 786.679688 3349.703125 786.21875 Z M 3349.703125 786.21875 " fill-opacity="1" fill-rule="nonzero"/></g></g></g></g></g><g clip-path="url(#32c7459201)"><g clip-path="url(#94a2cc7543)"><g clip-path="url(#88877f617c)"><g clip-path="url(#5024244751)"><g clip-path="url(#c4d38fd16e)"><path fill="#f8cf29" d="M 3270.527344 915.164062 C 3269.609375 915.039062 3268.71875 914.644531 3267.980469 913.992188 C 3266.171875 912.382812 3265.832031 909.683594 3267.183594 907.675781 C 3267.183594 907.675781 3340.039062 799.519531 3340.039062 799.519531 C 3340.039062 799.519531 3301.300781 794.140625 3301.300781 794.140625 C 3299.414062 793.878906 3297.855469 792.53125 3297.324219 790.703125 C 3296.792969 788.871094 3297.382812 786.898438 3298.835938 785.667969 C 3298.835938 785.667969 3437.097656 668.289062 3437.097656 668.289062 C 3438.144531 667.394531 3439.542969 666.984375 3440.925781 667.175781 C 3442.632812 667.414062 3444.101562 668.550781 3444.761719 670.140625 C 3445.421875 671.730469 3445.1875 673.574219 3444.148438 674.949219 C 3444.148438 674.949219 3384.613281 753.5625 3384.613281 753.5625 C 3384.613281 753.5625 3438.703125 762.261719 3438.703125 762.261719 C 3440.558594 762.5625 3442.074219 763.910156 3442.585938 765.722656 C 3443.097656 767.53125 3442.511719 769.476562 3441.085938 770.703125 C 3441.085938 770.703125 3274.347656 914.042969 3274.347656 914.042969 C 3273.257812 914.976562 3271.859375 915.351562 3270.527344 915.164062 Z M 3270.527344 915.164062 " fill-opacity="1" fill-rule="nonzero"/></g></g></g></g></g><g clip-path="url(#3235d448a4)"><g clip-path="url(#9080ae062a)"><g clip-path="url(#47dd134d63)"><g clip-path="url(#11fa719dc1)"><g clip-path="url(#2695463380)"><path fill="#f8cf29" d="M 3440.261719 671.964844 C 3440.289062 671.96875 3440.3125 672.003906 3440.289062 672.035156 C 3440.289062 672.035156 3375.902344 757.058594 3375.902344 757.058594 C 3375.902344 757.058594 3437.933594 767.035156 3437.933594 767.035156 C 3437.933594 767.035156 3271.195312 910.375 3271.195312 910.375 C 3271.195312 910.375 3348.375 795.796875 3348.375 795.796875 C 3348.375 795.796875 3301.964844 789.351562 3301.964844 789.351562 C 3301.964844 789.351562 3440.226562 671.976562 3440.226562 671.976562 C 3440.238281 671.964844 3440.25 671.964844 3440.261719 671.964844 Z M 3441.589844 662.386719 C 3438.855469 662.007812 3436.078125 662.816406 3433.972656 664.601562 C 3433.972656 664.601562 3295.707031 781.980469 3295.707031 781.980469 C 3292.804688 784.449219 3291.617188 788.390625 3292.683594 792.050781 C 3293.746094 795.710938 3296.859375 798.40625 3300.636719 798.929688 C 3300.636719 798.929688 3331.699219 803.242188 3331.699219 803.242188 C 3331.699219 803.242188 3263.175781 904.976562 3263.175781 904.976562 C 3260.46875 908.988281 3261.152344 914.386719 3264.769531 917.601562 C 3266.246094 918.914062 3268.023438 919.699219 3269.859375 919.953125 C 3272.527344 920.324219 3275.324219 919.578125 3277.496094 917.710938 C 3277.496094 917.710938 3444.238281 774.367188 3444.238281 774.367188 C 3447.089844 771.914062 3448.261719 768.027344 3447.238281 764.40625 C 3446.214844 760.785156 3443.183594 758.085938 3439.46875 757.488281 C 3439.46875 757.488281 3393.328125 750.066406 3393.328125 750.066406 C 3393.328125 750.066406 3448 677.871094 3448 677.871094 C 3450.070312 675.136719 3450.542969 671.464844 3449.230469 668.296875 C 3447.917969 665.125 3444.992188 662.859375 3441.589844 662.386719 Z M 3441.589844 662.386719 " fill-opacity="1" fill-rule="nonzero"/></g></g></g></g></g><g clip-path="url(#59d253dbd1)"><g clip-path="url(#00743d938b)"><g clip-path="url(#b9e43c0eb6)"><g clip-path="url(#877dc465fa)"><g clip-path="url(#91c2703267)"><g mask="url(#2b5faa0205)"><g transform="matrix(1, 0, 0, 1, 3362, 716)"><g clip-path="url(#1db8945624)"><g clip-path="url(#cda0212d7a)"><g clip-path="url(#0bab5f1744)"><g clip-path="url(#c9a621046b)"><g clip-path="url(#59aa229048)"><g clip-path="url(#7bdc4f919d)"><path fill="#fdf7fa" d="M 23.035156 2.832031 C 23.035156 2.832031 3.371094 19.527344 3.371094 19.527344 C 3.371094 19.527344 17.207031 36.699219 17.207031 36.699219 C 17.207031 36.699219 33.25 15.511719 33.25 15.511719 C 33.25 15.511719 23.035156 2.832031 23.035156 2.832031 Z M 23.035156 2.832031 " fill-opacity="1" fill-rule="nonzero"/></g></g></g></g></g></g></g></g></g></g></g></g></g><g clip-path="url(#7bf4040e75)"><g clip-path="url(#fea4611735)"><g clip-path="url(#6fb6fbe0e7)"><g clip-path="url(#072056eb79)"><g clip-path="url(#57380fc24b)"><g mask="url(#13765d51e2)"><g transform="matrix(1, 0, 0, 1, 3379, 758)"><g clip-path="url(#9a4c1a699c)"><g clip-path="url(#2f640eaa36)"><g clip-path="url(#17d691bb3a)"><g clip-path="url(#fb7f7d11e1)"><g clip-path="url(#7f11774008)"><g clip-path="url(#e25699458d)"><path fill="#fdf7fa" d="M 42.773438 6.4375 C 42.773438 6.4375 7.621094 0.78125 7.621094 0.78125 C 7.621094 0.78125 4.734375 0.316406 4.734375 0.316406 C 4.734375 0.316406 31.058594 32.996094 31.058594 32.996094 C 31.058594 32.996094 50.621094 16.179688 50.621094 16.179688 C 50.621094 16.179688 42.773438 6.4375 42.773438 6.4375 Z M 42.773438 6.4375 " fill-opacity="1" fill-rule="nonzero"/></g></g></g></g></g></g></g></g></g></g></g></g></g><g clip-path="url(#5b6afc4707)"><g clip-path="url(#62addaeb8b)"><g clip-path="url(#54dfc9dac3)"><g clip-path="url(#f744ce2ca3)"><g clip-path="url(#92ffca6df3)"><g mask="url(#5fe15bc0c7)"><g transform="matrix(1, 0, 0, 1, 3324, 735)"><g clip-path="url(#6745283f64)"><g clip-path="url(#6d8bda74f4)"><g clip-path="url(#522ac44ac1)"><g clip-path="url(#883b02492a)"><g clip-path="url(#b192da484a)"><g clip-path="url(#50a99669f3)"><path fill="#fdf7fa" d="M 36.972656 4.257812 C 36.972656 4.257812 7.476562 29.296875 7.476562 29.296875 C 7.476562 29.296875 52.339844 84.984375 52.339844 84.984375 C 52.339844 84.984375 81.683594 59.757812 81.683594 59.757812 C 81.683594 59.757812 36.972656 4.257812 36.972656 4.257812 Z M 36.972656 4.257812 " fill-opacity="1" fill-rule="nonzero"/></g></g></g></g></g></g></g></g></g></g></g></g></g></svg>